<svg width="24" height="24" viewBox="0 0 24 24" fill="none" xmlns="http://www.w3.org/2000/svg">
<g id="chevron right">
<path id="Icon" d="M15.78 12.7199C15.9207 12.5793 15.9998 12.3887 16 12.1899V11.8099C15.9977 11.6114 15.9189 11.4216 15.78 11.2799L10.64 6.14985C10.5461 6.0552 10.4183 6.00195 10.285 6.00195C10.1517 6.00195 10.0239 6.0552 9.93 6.14985L9.22 6.85985C9.12594 6.95202 9.07293 7.07816 9.07293 7.20985C9.07293 7.34154 9.12594 7.46769 9.22 7.55985L13.67 11.9999L9.22 16.4399C9.12534 16.5337 9.0721 16.6615 9.0721 16.7949C9.0721 16.9282 9.12534 17.056 9.22 17.1499L9.93 17.8499C10.0239 17.9445 10.1517 17.9978 10.285 17.9978C10.4183 17.9978 10.5461 17.9445 10.64 17.8499L15.78 12.7199Z" fill="#F178B6"/>
</g>
</svg>
