<svg width="86" height="28" viewBox="0 0 86 28" fill="none" xmlns="http://www.w3.org/2000/svg">
<path d="M12.1306 2.5905V5.8385H4.90659V10.1505H11.5146V13.3705H4.90659V20.2305H0.650589V2.5905H12.1306ZM28.1838 13.4265C28.1838 14.5278 27.9971 15.5172 27.6238 16.3945C27.2691 17.2718 26.7744 18.0185 26.1398 18.6345C25.5051 19.2505 24.7584 19.7265 23.8998 20.0625C23.0411 20.3798 22.1171 20.5385 21.1278 20.5385C20.1384 20.5385 19.2144 20.3892 18.3558 20.0905C17.5158 19.7732 16.7878 19.3252 16.1718 18.7465C15.5558 18.1678 15.0704 17.4585 14.7158 16.6185C14.3611 15.7598 14.1838 14.7892 14.1838 13.7065C14.1838 12.5678 14.3611 11.5505 14.7158 10.6545C15.0891 9.7585 15.5931 9.0025 16.2278 8.3865C16.8624 7.7705 17.6091 7.30383 18.4678 6.9865C19.3264 6.6505 20.2504 6.4825 21.2398 6.4825C22.2291 6.4825 23.1438 6.63183 23.9838 6.9305C24.8424 7.22917 25.5798 7.67717 26.1958 8.2745C26.8118 8.85317 27.2971 9.57183 27.6518 10.4305C28.0064 11.2892 28.1838 12.2878 28.1838 13.4265ZM23.9278 13.5665C23.9278 12.8385 23.8531 12.2225 23.7038 11.7185C23.5544 11.1958 23.3491 10.7758 23.0878 10.4585C22.8264 10.1225 22.5278 9.87983 22.1918 9.7305C21.8558 9.58117 21.5104 9.5065 21.1558 9.5065C20.8011 9.5065 20.4558 9.57183 20.1198 9.7025C19.8024 9.83317 19.5131 10.0572 19.2518 10.3745C19.0091 10.6918 18.8131 11.1118 18.6638 11.6345C18.5144 12.1385 18.4398 12.7825 18.4398 13.5665C18.4398 14.9292 18.7198 15.9278 19.2798 16.5625C19.8398 17.1972 20.4838 17.5145 21.2118 17.5145C21.5664 17.5145 21.9024 17.4492 22.2198 17.3185C22.5558 17.1692 22.8451 16.9452 23.0878 16.6465C23.3491 16.3292 23.5544 15.9185 23.7038 15.4145C23.8531 14.9105 23.9278 14.2945 23.9278 13.5665ZM44.8832 13.4265C44.8832 14.5278 44.6965 15.5172 44.3232 16.3945C43.9685 17.2718 43.4738 18.0185 42.8392 18.6345C42.2045 19.2505 41.4578 19.7265 40.5992 20.0625C39.7405 20.3798 38.8165 20.5385 37.8272 20.5385C36.8378 20.5385 35.9138 20.3892 35.0552 20.0905C34.2152 19.7732 33.4872 19.3252 32.8712 18.7465C32.2552 18.1678 31.7698 17.4585 31.4152 16.6185C31.0605 15.7598 30.8832 14.7892 30.8832 13.7065C30.8832 12.5678 31.0605 11.5505 31.4152 10.6545C31.7885 9.7585 32.2925 9.0025 32.9272 8.3865C33.5618 7.7705 34.3085 7.30383 35.1672 6.9865C36.0258 6.6505 36.9498 6.4825 37.9392 6.4825C38.9285 6.4825 39.8432 6.63183 40.6832 6.9305C41.5418 7.22917 42.2792 7.67717 42.8952 8.2745C43.5112 8.85317 43.9965 9.57183 44.3512 10.4305C44.7058 11.2892 44.8832 12.2878 44.8832 13.4265ZM40.6272 13.5665C40.6272 12.8385 40.5525 12.2225 40.4032 11.7185C40.2538 11.1958 40.0485 10.7758 39.7872 10.4585C39.5258 10.1225 39.2272 9.87983 38.8912 9.7305C38.5552 9.58117 38.2098 9.5065 37.8552 9.5065C37.5005 9.5065 37.1552 9.57183 36.8192 9.7025C36.5018 9.83317 36.2125 10.0572 35.9512 10.3745C35.7085 10.6918 35.5125 11.1118 35.3632 11.6345C35.2138 12.1385 35.1392 12.7825 35.1392 13.5665C35.1392 14.9292 35.4192 15.9278 35.9792 16.5625C36.5392 17.1972 37.1832 17.5145 37.9112 17.5145C38.2658 17.5145 38.6018 17.4492 38.9192 17.3185C39.2552 17.1692 39.5445 16.9452 39.7872 16.6465C40.0485 16.3292 40.2538 15.9185 40.4032 15.4145C40.5525 14.9105 40.6272 14.2945 40.6272 13.5665ZM56.8505 0.210498H60.9945V20.2305H58.1385L57.7185 18.7745H57.5785C57.3172 19.1852 56.8599 19.5865 56.2065 19.9785C55.5719 20.3518 54.7319 20.5385 53.6865 20.5385C52.8092 20.5385 51.9972 20.3798 51.2505 20.0625C50.5039 19.7265 49.8599 19.2598 49.3185 18.6625C48.7772 18.0465 48.3479 17.3092 48.0305 16.4505C47.7319 15.5732 47.5825 14.5932 47.5825 13.5105C47.5825 12.4465 47.7225 11.4852 48.0025 10.6265C48.2825 9.74917 48.6839 9.01183 49.2065 8.4145C49.7479 7.7985 50.4105 7.3225 51.1945 6.9865C51.9785 6.6505 52.8652 6.4825 53.8545 6.4825C54.4705 6.4825 55.0492 6.57583 55.5905 6.7625C56.1505 6.9305 56.5705 7.14517 56.8505 7.4065V0.210498ZM56.8505 10.4305C56.6825 10.2065 56.4212 9.99183 56.0665 9.7865C55.7119 9.58117 55.3199 9.4785 54.8905 9.4785C54.4612 9.4785 54.0599 9.55317 53.6865 9.7025C53.3132 9.83317 52.9772 10.0572 52.6785 10.3745C52.3985 10.6918 52.1745 11.1025 52.0065 11.6065C51.8385 12.0918 51.7545 12.6985 51.7545 13.4265C51.7545 14.8265 52.0252 15.8625 52.5665 16.5345C53.1265 17.1878 53.8452 17.5145 54.7225 17.5145C55.2639 17.5145 55.7119 17.3745 56.0665 17.0945C56.4399 16.8145 56.7012 16.5158 56.8505 16.1985V10.4305ZM63.718 6.7905H68.254L70.466 12.7825L71.362 16.0585H71.474L72.314 12.7265L74.246 6.7905H78.474L73.63 20.4825C73.3686 21.2478 73.0606 21.9945 72.706 22.7225C72.3513 23.4505 71.9126 24.1318 71.39 24.7665C70.886 25.4012 70.27 25.9798 69.542 26.5025C68.814 27.0252 67.9366 27.4545 66.91 27.7905L65.202 24.5705C66.3033 24.1785 67.2086 23.6185 67.918 22.8905C68.646 22.1625 69.1313 21.3225 69.374 20.3705L69.43 20.1465L63.718 6.7905Z" fill="#F5F5F5"/>
<path d="M80.7431 18.0745C80.7431 17.3652 80.9764 16.7865 81.4431 16.3385C81.9284 15.8718 82.4977 15.6385 83.1511 15.6385C83.8044 15.6385 84.3644 15.8718 84.8311 16.3385C85.2977 16.7865 85.5311 17.3652 85.5311 18.0745C85.5311 18.8398 85.2977 19.4465 84.8311 19.8945C84.3644 20.3238 83.8044 20.5385 83.1511 20.5385C82.4977 20.5385 81.9284 20.3238 81.4431 19.8945C80.9764 19.4465 80.7431 18.8398 80.7431 18.0745Z" fill="#EAAB00"/>
</svg>
